<svg id="visual" viewBox="0 0 900 600" width="900" height="600" xmlns="http://www.w3.org/2000/svg" xmlns:xlink="http://www.w3.org/1999/xlink" version="1.1"><rect x="0" y="0" width="900" height="600" fill="#f4dede"></rect><defs><linearGradient id="grad1_0" x1="33.3%" y1="0%" x2="100%" y2="100%"><stop offset="20%" stop-color="#f4dede" stop-opacity="1"></stop><stop offset="80%" stop-color="#f4dede" stop-opacity="1"></stop></linearGradient></defs><defs><linearGradient id="grad2_0" x1="0%" y1="0%" x2="66.7%" y2="100%"><stop offset="20%" stop-color="#f4dede" stop-opacity="1"></stop><stop offset="80%" stop-color="#f4dede" stop-opacity="1"></stop></linearGradient></defs><g transform="translate(900, 0)"><path d="M0 486.7C-55.7 462.2 -111.4 437.7 -173.4 418.5C-235.3 399.3 -303.6 385.4 -344.2 344.2C-384.7 303 -397.5 234.5 -416.7 172.6C-435.8 110.7 -461.3 55.3 -486.7 0L0 0Z" fill="#EA062B"></path></g><g transform="translate(0, 600)"><path d="M0 -486.7C48.4 -442.8 96.7 -398.9 158 -381.6C219.3 -364.2 293.6 -373.6 344.2 -344.2C394.8 -314.8 421.8 -246.7 441.6 -182.9C461.4 -119.1 474.1 -59.6 486.7 0L0 0Z" fill="#EA062B"></path></g></svg>